<?xml version="1.0" standalone="no"?>
<!DOCTYPE svg PUBLIC "-//W3C//DTD SVG 20010904//EN"
 "http://www.w3.org/TR/2001/REC-SVG-20010904/DTD/svg10.dtd">
<svg version="1.0" xmlns="http://www.w3.org/2000/svg"
 width="1968.000000pt" height="1904.000000pt" viewBox="0 0 1968.000000 1904.000000"
 preserveAspectRatio="xMidYMid meet">

<g transform="translate(0.000000,1904.000000) scale(0.100000,-0.100000)"
fill="#000000" stroke="none">
<path d="M9804 17108 c-2 -3 -8 -115 -13 -248 -5 -133 -12 -244 -15 -248 -4
-3 -73 -1 -154 5 -81 5 -149 8 -152 6 -2 -2 -6 -52 -7 -111 -2 -59 -5 -124 -6
-144 l-3 -38 149 0 c124 0 149 -2 154 -15 3 -9 0 -226 -6 -483 -24 -938 -24
-984 -12 -1061 22 -141 99 -242 231 -305 58 -27 77 -31 174 -34 117 -5 172 6
200 37 22 24 36 127 29 215 l-6 66 -82 0 c-94 0 -164 20 -185 53 -22 34 -24
200 -6 812 9 303 16 580 16 616 l0 67 162 1 c89 1 163 3 165 4 4 5 5 258 0
263 -2 3 -70 9 -151 13 -81 5 -149 11 -151 12 -2 2 1 114 6 248 4 135 6 247 3
250 -8 9 -335 27 -340 19z"/>
<path d="M5382 16610 c-34 -16 -84 -36 -111 -44 -83 -24 -111 -43 -111 -74 0
-64 46 -183 405 -1062 98 -239 302 -746 416 -1035 142 -357 199 -495 246 -592
32 -66 38 -73 65 -73 41 0 178 55 228 91 40 29 42 33 38 72 -3 23 -53 153
-111 288 -58 135 -113 272 -123 305 -16 58 -16 64 5 145 27 108 51 169 65 169
14 0 45 -22 181 -130 140 -110 213 -168 420 -329 94 -72 196 -153 228 -178 69
-54 53 -56 250 33 65 30 130 54 145 55 15 0 36 4 47 9 19 8 19 9 -2 9 -12 1
-61 35 -110 77 -48 42 -99 83 -113 92 -14 9 -182 134 -375 277 -192 144 -384
284 -425 313 -41 28 -90 64 -107 79 l-33 28 30 115 c56 211 201 734 232 833
17 54 29 100 26 102 -2 2 -47 -7 -99 -20 -107 -27 -235 -78 -261 -103 -27 -26
-64 -142 -133 -417 -66 -264 -105 -445 -126 -582 -7 -46 -16 -83 -20 -83 -8 0
-68 122 -105 210 -217 530 -488 1203 -555 1379 -13 36 -29 66 -34 68 -6 2 -38
-10 -73 -27z"/>
<path d="M11443 16518 c-42 -68 -48 -85 -388 -1123 -114 -346 -218 -661 -232
-700 -50 -141 -56 -167 -41 -180 13 -13 229 -88 285 -100 30 -6 32 -5 52 50
25 67 214 639 341 1033 112 349 151 445 194 476 85 65 216 104 300 92 67 -10
196 -77 235 -121 54 -62 72 -114 73 -208 0 -46 -7 -112 -17 -151 -10 -38 -103
-323 -207 -635 -193 -577 -235 -714 -234 -765 1 -25 6 -30 45 -42 25 -7 70
-16 100 -20 31 -4 75 -17 99 -30 72 -40 72 -40 121 114 25 75 84 256 132 402
48 146 110 339 138 430 110 355 165 476 255 565 70 70 137 105 216 114 108 13
220 -28 296 -106 63 -65 78 -113 71 -231 -7 -116 -26 -188 -175 -637 -239
-720 -274 -829 -275 -868 l-2 -41 73 -28 c40 -16 103 -35 140 -43 37 -8 77
-17 89 -21 20 -5 24 3 58 113 20 65 101 312 180 548 277 834 270 807 270 1041
l0 161 -39 77 c-90 177 -284 290 -536 312 -134 11 -285 -26 -362 -91 -16 -14
-36 -25 -43 -25 -8 0 -37 48 -65 107 -84 173 -182 256 -385 324 -165 56 -257
50 -413 -26 -40 -19 -77 -35 -82 -35 -17 0 -10 73 11 120 19 42 19 45 3 57
-10 7 -23 13 -30 13 -20 0 -178 62 -195 76 -20 17 -45 18 -56 2z"/>
<path d="M14667 15163 c-27 -43 -89 -201 -177 -453 -34 -96 -74 -211 -90 -255
-122 -335 -320 -886 -320 -890 0 -11 -103 -282 -130 -342 -45 -99 -167 -202
-345 -292 -65 -33 -76 -36 -151 -34 -93 2 -134 18 -177 69 -16 19 -37 34 -47
34 -38 0 -92 -44 -138 -112 -84 -124 -81 -107 -34 -169 42 -56 48 -61 145
-116 69 -39 88 -44 188 -50 58 -4 95 0 155 16 163 45 284 121 629 396 144 115
293 230 537 418 78 59 191 147 252 195 61 49 170 133 241 187 72 54 155 120
185 146 59 50 126 102 342 262 75 56 139 108 143 116 3 8 -5 30 -19 49 -28 40
-153 136 -210 162 -36 17 -42 17 -69 3 -36 -18 -190 -141 -392 -313 -82 -71
-244 -207 -360 -303 -115 -96 -257 -215 -315 -265 -58 -50 -107 -86 -108 -81
-2 5 26 78 61 162 36 83 106 253 155 377 50 124 122 299 160 390 89 213 118
286 153 389 31 91 35 121 19 151 -12 22 -231 190 -248 190 -6 0 -22 -17 -35
-37z"/>
<path d="M4300 14997 c-196 -60 -400 -228 -494 -407 -65 -123 -82 -257 -52
-401 33 -154 157 -313 303 -389 96 -49 292 -48 574 5 168 32 350 55 424 55
104 -1 177 -40 236 -126 25 -36 33 -60 37 -110 4 -57 1 -71 -26 -127 -40 -80
-112 -153 -198 -198 -84 -45 -137 -60 -212 -60 -74 -1 -133 25 -202 88 -30 28
-62 52 -70 55 -46 16 -260 -147 -260 -198 0 -35 50 -92 125 -141 145 -96 229
-123 378 -123 188 0 317 45 482 167 245 182 379 476 310 678 -21 61 -93 190
-133 241 -59 73 -152 145 -229 176 -54 21 -70 23 -238 22 -192 -2 -185 -1
-530 -84 -109 -26 -143 -30 -212 -26 -96 6 -129 20 -177 79 -49 60 -66 106
-66 176 0 132 66 228 202 294 87 42 155 55 201 36 49 -19 162 -87 193 -116 22
-20 33 -24 50 -17 38 15 244 183 244 199 0 23 -107 125 -181 172 -147 96 -329
126 -479 80z"/>
<path d="M9185 14489 c-33 -5 -143 -18 -245 -30 -183 -21 -457 -60 -700 -99
-114 -19 -428 -60 -457 -60 -14 0 -18 -134 -6 -252 6 -68 6 -68 36 -68 17 0
94 11 172 25 79 14 207 34 286 45 79 10 239 34 354 53 116 19 273 45 350 57
77 12 179 29 228 38 l87 16 -1 35 c-2 81 -25 245 -34 246 -5 1 -37 -2 -70 -6z"/>
<path d="M2690 13505 c-106 -26 -180 -68 -298 -169 -88 -76 -218 -273 -252
-385 -28 -89 -28 -239 1 -324 62 -184 194 -326 371 -399 73 -30 187 -29 288 1
73 22 197 72 330 134 162 75 201 91 285 124 181 69 273 63 368 -25 62 -58 77
-93 77 -179 0 -113 -41 -197 -137 -286 -94 -86 -174 -120 -285 -119 -74 1 -92
8 -155 58 -23 19 -44 34 -48 34 -17 0 -74 -53 -136 -128 -97 -116 -101 -145
-32 -198 23 -18 79 -46 123 -63 280 -109 569 -19 794 245 176 207 249 432 201
618 -39 147 -189 327 -335 398 -206 101 -315 82 -733 -124 -256 -126 -340
-158 -421 -158 -87 0 -169 56 -221 152 -24 44 -27 58 -23 121 7 132 83 248
201 307 84 42 144 41 250 -5 44 -19 91 -35 103 -35 31 0 168 147 202 218 16
32 15 32 -19 68 -47 48 -143 92 -252 115 -106 22 -170 23 -247 4z"/>
<path d="M16313 13466 c-93 -23 -163 -66 -253 -156 -91 -90 -119 -137 -140
-233 -24 -107 12 -332 108 -677 39 -141 46 -179 46 -260 1 -80 -2 -102 -22
-137 -52 -99 -143 -163 -231 -165 -64 -2 -148 39 -218 105 -66 62 -108 127
-139 214 -40 114 -31 182 40 285 58 85 62 101 36 146 -34 56 -162 212 -176
212 -6 0 -39 -29 -72 -65 -77 -82 -145 -216 -168 -332 -14 -75 -14 -91 0 -185
9 -57 18 -113 22 -125 l6 -23 -1418 0 -1419 0 46 -43 c38 -34 1010 -914 1749
-1582 604 -547 1070 -966 1098 -990 l32 -27 0 1243 0 1244 35 -52 c86 -128
242 -259 375 -314 49 -21 71 -24 200 -24 138 0 148 2 209 29 150 65 268 170
327 291 47 96 57 161 44 282 -12 113 -15 126 -105 448 -55 197 -67 254 -69
320 -1 68 3 87 24 125 79 141 307 175 438 65 71 -59 122 -169 122 -260 0 -62
-25 -133 -70 -200 -22 -33 -40 -68 -40 -77 0 -9 16 -38 36 -65 44 -58 194
-203 211 -203 6 0 15 10 19 22 3 12 28 52 55 89 150 206 180 429 82 623 -51
102 -134 215 -210 285 -84 78 -218 151 -311 170 -70 14 -234 13 -299 -3z"/>
<path d="M6157 12063 c-9 -8 -9 -2577 0 -2745 l6 -128 782 0 781 0 38 138
c131 476 393 916 750 1259 173 166 319 273 604 440 10 6 -66 145 -285 525
l-298 517 -1186 1 c-652 0 -1189 -3 -1192 -7z"/>
<path d="M8970 12066 c0 -2 40 -73 88 -158 49 -84 157 -272 241 -418 84 -146
159 -275 166 -286 l14 -22 58 20 c109 36 288 78 428 100 170 26 549 31 705 10
432 -61 797 -198 1148 -432 1091 -728 1509 -2153 989 -3375 -28 -66 -63 -143
-79 -171 -15 -28 -25 -54 -21 -58 3 -3 334 -6 735 -6 l728 0 2 -2117 c1 -1165
2 -2130 1 -2145 l-1 -28 525 -2 c342 -2 527 0 531 7 4 6 8 1342 10 2971 l4
2960 -204 185 c-112 102 -810 734 -1553 1405 -742 670 -1435 1297 -1540 1391
l-190 172 -1392 1 c-766 0 -1393 -2 -1393 -4z"/>
<path d="M10182 10949 c-188 -14 -510 -81 -505 -106 1 -6 142 -252 313 -548
170 -296 310 -542 310 -546 0 -5 -72 -132 -159 -283 l-159 -275 983 -3 c541
-2 986 -5 988 -8 3 -3 7 -429 9 -947 1 -518 6 -945 11 -949 4 -4 68 -10 141
-12 160 -5 148 -13 239 151 77 138 138 281 188 436 129 404 148 857 54 1275
-137 607 -519 1147 -1043 1475 -320 200 -670 313 -1057 341 -153 11 -150 11
-313 -1z m1805 -3041 c-3 -8 -6 -5 -6 6 -1 11 2 17 5 13 3 -3 4 -12 1 -19z"/>
<path d="M9192 10637 c-174 -106 -290 -196 -438 -342 -218 -216 -335 -377
-465 -640 -71 -144 -169 -403 -169 -448 0 -16 39 -17 717 -15 l717 3 158 275
c87 151 156 281 153 288 -3 8 -125 222 -272 478 -166 287 -274 464 -283 464
-8 0 -61 -28 -118 -63z"/>
<path d="M5227 8729 c-3 -12 -6 -395 -7 -850 l0 -829 1456 0 1456 0 -18 28
c-285 434 -444 968 -444 1494 l0 168 -1197 0 c-659 0 -1208 3 -1219 6 -16 4
-23 0 -27 -17z"/>
<path d="M8040 8613 c0 -397 90 -776 265 -1117 78 -153 129 -230 142 -214 9
12 216 368 633 1093 95 165 181 315 192 333 l20 32 -626 0 -626 0 0 -127z"/>
<path d="M9545 8433 c-98 -170 -253 -438 -345 -598 -92 -159 -243 -420 -335
-580 -92 -159 -170 -294 -172 -299 -6 -9 83 -95 212 -204 167 -140 400 -279
610 -362 88 -35 260 -90 281 -90 12 0 14 80 14 485 l0 485 855 0 855 0 -2 733
-3 732 -896 3 -897 2 -177 -307z"/>
<path d="M10187 6893 c-4 -3 -7 -149 -7 -323 0 -232 3 -319 12 -328 8 -8 53
-12 138 -12 368 0 707 80 1032 242 l158 79 0 175 0 174 -663 0 c-365 0 -667
-3 -670 -7z"/>
<path d="M12415 6848 c-74 -98 -427 -442 -440 -430 -9 10 -9 -3109 0 -3358 3
-79 5 -85 24 -84 12 0 422 1 911 2 l890 2 0 1960 0 1960 -673 0 -673 0 -39
-52z m-428 -2660 c-3 -8 -6 -5 -6 6 -1 11 2 17 5 13 3 -3 4 -12 1 -19z m0 -80
c-3 -7 -5 -2 -5 12 0 14 2 19 5 13 2 -7 2 -19 0 -25z m0 -80 c-3 -8 -6 -5 -6
6 -1 11 2 17 5 13 3 -3 4 -12 1 -19z"/>
<path d="M5223 6428 l2 -253 1655 -5 1655 -5 3 -1856 2 -1856 233 -6 c127 -4
413 -7 635 -7 l402 0 0 1735 0 1734 -42 11 c-267 68 -423 126 -626 231 -234
120 -420 252 -607 430 l-104 99 -1605 0 -1604 0 1 -252z"/>
<path d="M11410 6080 c-112 -50 -303 -116 -435 -149 -178 -45 -325 -63 -560
-69 l-230 -7 0 -1700 0 -1700 666 -3 666 -2 2 1840 c1 1012 1 1840 -1 1839 -2
0 -50 -22 -108 -49z"/>
<path d="M4289 5756 c-9 -6 -11 -317 -14 -1934 -4 -1767 -3 -1883 13 -1890 9
-4 175 -6 367 -5 193 0 1048 1 1902 2 l1551 1 2 1904 c0 1047 -3 1906 -7 1909
-6 4 -3809 16 -3814 13z m3481 -1936 l0 -1520 -1575 0 -1575 0 0 1515 0 1515
1573 3 c864 1 1573 3 1575 5 1 1 2 -682 2 -1518z"/>
<path d="M4997 4953 c-4 -3 -7 -514 -7 -1133 0 -937 2 -1129 14 -1139 10 -8
332 -10 1202 -9 l1189 3 3 1143 2 1142 -1198 0 c-659 0 -1202 -3 -1205 -7z
m2073 -1135 l0 -818 -875 0 -875 0 0 813 c0 448 2 816 4 818 2 2 396 4 875 4
l871 0 0 -817z"/>
<path d="M5697 4253 c-4 -3 -7 -199 -7 -433 0 -349 3 -430 14 -439 9 -8 149
-10 502 -9 l489 3 3 443 2 442 -498 0 c-274 0 -502 -3 -505 -7z"/>
</g>
</svg>
