<?xml version="1.0" standalone="no"?>
<!DOCTYPE svg PUBLIC "-//W3C//DTD SVG 20010904//EN"
 "http://www.w3.org/TR/2001/REC-SVG-20010904/DTD/svg10.dtd">
<svg version="1.0" xmlns="http://www.w3.org/2000/svg"
 width="1172.000000pt" height="1154.000000pt" viewBox="0 0 1172.000000 1154.000000"
 preserveAspectRatio="xMidYMid meet">

<g transform="translate(0.000000,1154.000000) scale(0.100000,-0.100000)"
fill="#000000" stroke="none">
<path d="M5385 10715 c-146 -24 -293 -72 -460 -151 -49 -23 -121 -55 -160 -69
-38 -15 -92 -38 -120 -50 -27 -12 -61 -25 -75 -29 -45 -13 -201 -79 -196 -83
7 -7 165 47 171 58 4 5 13 9 21 9 8 0 72 23 142 51 473 190 746 247 1186 249
79 0 126 4 120 9 -5 5 -128 12 -274 15 -206 4 -285 2 -355 -9z"/>
<path d="M6120 10716 c0 -16 48 -26 140 -28 66 -1 142 11 135 23 -3 4 9 10 27
12 18 2 -42 5 -134 5 -140 2 -168 0 -168 -12z"/>
<path d="M6543 10713 c9 -2 23 -2 30 0 6 3 -1 5 -18 5 -16 0 -22 -2 -12 -5z"/>
<path d="M6638 10713 c6 -2 18 -2 25 0 6 3 1 5 -13 5 -14 0 -19 -2 -12 -5z"/>
<path d="M6690 10703 c0 -6 11 -8 25 -5 15 2 25 0 25 -7 0 -6 14 -11 30 -11
32 0 41 -16 13 -22 -10 -3 16 -10 57 -17 41 -7 95 -19 120 -26 175 -55 236
-71 240 -65 3 4 12 10 20 14 9 3 6 5 -7 2 -12 -2 -24 1 -26 7 -2 6 -14 12 -28
12 -13 1 -45 12 -72 24 -26 12 -52 19 -57 16 -6 -3 -10 -2 -10 3 0 12 -14 18
-125 47 -108 29 -205 42 -205 28z m238 -60 c-10 -2 -28 -2 -40 0 -13 2 -5 4
17 4 22 1 32 -1 23 -4z"/>
<path d="M6360 10679 c-48 -9 -44 -9 120 -13 80 -2 125 -2 100 0 -25 3 -76 8
-115 12 -38 4 -86 4 -105 1z"/>
<path d="M7232 10548 c-8 -10 -2 -13 30 -14 25 -1 35 1 27 6 -7 5 -17 6 -22 3
-5 -3 -13 0 -17 6 -5 9 -9 9 -18 -1z"/>
<path d="M7370 10500 c0 -5 8 -10 18 -10 14 0 15 -2 2 -10 -8 -5 -13 -10 -10
-10 3 0 41 -16 85 -35 76 -33 78 -35 42 -35 -21 0 -68 -4 -105 -9 -207 -30
-351 -32 -572 -11 -118 11 -280 25 -360 30 -80 5 -230 16 -335 25 -240 19
-358 19 -565 0 -337 -30 -656 -94 -943 -190 -452 -152 -575 -194 -627 -218
-79 -35 -98 -42 -198 -76 -128 -43 -276 -119 -425 -220 -135 -91 -168 -112
-269 -176 -34 -21 -85 -64 -113 -93 -48 -53 -197 -172 -215 -172 -4 0 -22 -12
-39 -26 -17 -14 -31 -23 -31 -20 0 17 -56 -25 -57 -43 -3 -32 -139 -149 -185
-158 -15 -3 -30 -14 -33 -24 -17 -52 -117 -81 -130 -38 -8 23 11 42 33 34 7
-3 17 6 22 19 9 24 80 86 99 86 6 0 11 5 11 11 0 16 31 38 53 39 17 0 22 11
11 23 -10 10 -39 -9 -92 -58 -26 -25 -51 -45 -56 -45 -21 0 -264 -243 -390
-388 -177 -206 -352 -467 -546 -817 -19 -33 -50 -85 -70 -115 -21 -30 -51 -83
-68 -117 -42 -83 -94 -261 -90 -310 l3 -38 28 53 c15 29 48 103 74 165 78 192
187 396 255 479 35 42 100 79 114 65 8 -7 -40 -101 -120 -237 -84 -142 -181
-335 -228 -455 -89 -223 -220 -592 -257 -720 -43 -151 -94 -380 -89 -396 2 -5
23 64 47 153 62 233 94 328 178 543 41 105 100 253 130 330 91 231 210 463
275 533 18 20 49 56 67 80 20 23 43 42 54 42 23 0 101 75 93 89 -4 5 2 25 12
43 23 40 66 49 102 20 25 -20 25 -22 -14 -87 -55 -92 -137 -268 -274 -592 -86
-204 -102 -235 -134 -260 -21 -15 -37 -34 -38 -41 0 -7 16 4 36 25 22 22 39
33 41 26 6 -18 -70 -277 -125 -429 -99 -268 -154 -869 -137 -1489 4 -148 9
-326 10 -395 1 -69 9 -163 18 -210 9 -47 26 -134 37 -195 13 -67 23 -166 26
-255 2 -80 11 -181 20 -225 14 -70 88 -304 113 -360 20 -44 41 -106 65 -196
27 -99 85 -241 110 -270 8 -10 19 -27 26 -38 23 -44 208 -267 242 -294 49 -36
59 -35 46 8 -7 21 -45 69 -102 127 -129 132 -177 207 -227 358 -23 69 -57 161
-75 206 -77 186 -117 364 -154 694 -12 102 -30 246 -42 320 -14 97 -18 157
-14 215 8 106 36 255 47 255 5 0 9 -8 9 -17 0 -29 87 -374 109 -433 11 -30 70
-203 131 -385 156 -461 206 -580 393 -917 131 -236 202 -334 382 -533 113
-125 161 -183 214 -263 60 -89 156 -188 188 -195 40 -9 110 -101 179 -237 66
-128 74 -138 229 -254 190 -143 198 -148 495 -274 91 -38 215 -93 275 -122
247 -116 670 -266 935 -331 107 -26 266 -50 520 -80 128 -15 571 -14 730 1
115 11 164 21 420 80 131 31 275 80 349 120 20 10 70 33 111 50 41 16 156 73
255 125 99 52 284 146 410 208 233 115 405 213 593 339 133 89 185 112 477
210 339 113 441 164 550 275 46 47 145 230 161 298 4 17 10 35 14 40 9 12 34
120 60 260 10 55 23 120 29 145 6 25 10 66 11 93 0 40 17 80 114 270 186 361
291 638 381 997 25 102 57 221 70 265 45 151 88 426 84 535 -1 19 0 56 2 83 1
35 -2 51 -15 60 -15 11 -16 33 -14 187 l3 175 32 3 c17 2 36 9 41 15 35 47
112 303 113 381 0 56 15 125 22 106 3 -8 8 -40 12 -70 3 -30 12 -64 19 -75 7
-11 25 -59 40 -107 33 -103 85 -172 138 -182 40 -8 98 -54 103 -81 2 -11 4
-42 4 -68 1 -44 3 -48 22 -42 13 4 27 1 39 -10 32 -29 50 -12 50 45 0 28 7 64
15 80 32 62 55 194 57 326 1 100 -6 178 -31 344 -68 459 -95 588 -170 822 -21
68 -41 143 -44 167 -9 72 -214 472 -319 620 -34 49 -85 123 -113 163 -27 40
-67 91 -87 113 -20 23 -46 65 -57 95 -26 69 -105 196 -120 192 -22 -5 -76 31
-116 76 -88 100 -114 132 -207 248 -136 170 -179 216 -287 306 -93 79 -246
218 -430 394 -159 151 -356 300 -541 408 -140 82 -351 173 -558 241 -62 20
-125 47 -140 60 -44 37 -123 72 -278 125 -165 56 -154 53 -154 40z m77 -36
c-3 -3 -12 -4 -19 -1 -8 3 -5 6 6 6 11 1 17 -2 13 -5z m-977 -74 c0 -5 -7 -10
-15 -10 -8 0 -15 5 -15 10 0 6 7 10 15 10 8 0 15 -4 15 -10z m1555 -341 c5 -5
19 -9 31 -9 12 0 57 -12 100 -26 44 -14 97 -29 119 -34 217 -44 263 -61 408
-149 113 -69 227 -162 332 -273 50 -52 136 -134 191 -182 56 -47 113 -104 128
-126 14 -22 25 -40 23 -40 -32 0 -142 54 -239 117 -182 119 -243 153 -280 156
-9 1 -16 5 -15 10 1 5 -34 41 -78 80 -190 166 -233 194 -480 318 -132 67 -247
127 -255 134 -8 6 -23 15 -32 18 -10 4 -18 11 -18 17 0 12 49 3 65 -11z m-237
-55 c166 -63 839 -403 952 -482 152 -107 340 -274 597 -534 180 -181 276 -315
277 -390 1 -23 -4 -43 -11 -45 -15 -5 -61 46 -88 96 -70 134 -77 142 -136 184
-34 23 -86 64 -116 90 -38 33 -61 47 -74 44 -13 -4 -38 10 -77 42 -67 56 -254
189 -402 288 -348 231 -857 505 -1194 643 -50 20 -91 41 -93 47 -6 18 52 25
142 18 82 -7 85 -7 85 14 0 30 24 27 138 -15z m-1698 -39 c218 -28 246 -33
277 -49 17 -8 56 -19 87 -22 31 -4 56 -11 56 -17 0 -11 -113 -4 -200 13 -73
14 -668 15 -840 2 -146 -12 -151 -13 -285 -42 -389 -83 -553 -126 -695 -180
-101 -38 -135 -46 -144 -31 -4 5 4 15 16 22 13 7 49 31 80 55 31 24 76 53 98
64 51 26 342 101 505 130 66 12 140 25 165 30 54 11 207 28 350 40 132 11 380
4 530 -15z m395 -445 c44 -5 160 -14 257 -20 162 -9 195 -14 370 -59 106 -27
222 -60 258 -74 147 -55 330 -160 439 -251 24 -20 103 -75 175 -123 72 -47
152 -105 178 -129 26 -24 53 -44 61 -44 7 0 68 -48 134 -107 66 -60 207 -184
313 -277 118 -104 233 -217 298 -290 58 -67 141 -159 186 -206 264 -277 449
-569 535 -845 12 -38 26 -83 31 -99 8 -24 2 -52 -30 -148 -22 -66 -49 -131
-60 -146 -16 -20 -20 -34 -15 -63 5 -27 1 -47 -14 -75 -27 -49 -27 -117 -2
-289 18 -120 47 -221 73 -253 16 -18 97 -72 110 -72 6 0 29 18 50 40 24 24 49
40 63 40 12 0 39 7 60 16 20 8 39 14 41 11 8 -8 34 -388 34 -505 0 -821 -206
-1546 -639 -2242 -127 -203 -181 -277 -192 -258 -12 22 -4 53 13 50 10 -1 16
6 16 22 0 13 7 39 16 57 l16 34 -28 -31 c-15 -17 -36 -46 -47 -64 -39 -66 -43
-71 -61 -93 -11 -12 -32 -40 -49 -62 -70 -93 -269 -309 -411 -445 -93 -89
-547 -481 -599 -517 -119 -82 -510 -275 -643 -318 -82 -26 -227 -52 -382 -70
-30 -3 -64 -7 -75 -10 -11 -2 -31 -4 -43 -4 -15 -1 -26 -8 -29 -20 -3 -11 -13
-19 -23 -18 -10 1 -16 7 -13 14 3 8 -3 13 -16 13 -12 0 -24 -6 -27 -14 -3 -8
-20 -13 -44 -13 -24 0 -37 4 -33 10 4 7 -10 8 -43 3 -27 -4 -67 -10 -89 -12
-22 -3 -83 -14 -135 -24 -127 -26 -276 -26 -820 0 -215 10 -312 24 -475 68
-988 270 -1116 310 -1325 407 -300 140 -351 165 -407 203 -124 84 -405 336
-538 482 -133 145 -198 243 -300 447 -83 166 -119 251 -215 498 -11 28 -50
124 -86 215 -37 91 -83 208 -104 260 -21 52 -51 124 -67 160 -47 104 -80 212
-123 410 -23 102 -57 246 -75 320 -87 340 -77 828 27 1305 84 388 201 703 411
1100 154 292 174 327 264 440 43 55 130 168 192 250 181 238 162 218 413 427
56 47 221 158 235 158 5 0 44 25 88 55 168 116 220 149 358 228 304 176 427
218 831 282 87 14 195 34 240 45 102 25 403 95 516 120 78 17 207 34 335 43
28 3 97 14 155 25 187 38 341 48 485 32z m-637 -47 c-21 -2 -57 -2 -80 0 -24
2 -7 4 37 4 44 0 63 -2 43 -4z m-2608 -472 c0 -5 -13 -14 -30 -21 -16 -7 -30
-18 -30 -26 0 -7 -10 -19 -22 -25 -13 -6 -31 -19 -40 -28 -9 -9 -32 -27 -49
-41 -46 -35 -172 -152 -182 -167 -4 -7 -15 -13 -22 -13 -8 0 -15 -3 -15 -8 0
-4 -52 -61 -116 -127 -63 -66 -122 -132 -130 -147 -8 -16 -19 -28 -24 -28 -16
0 -76 -63 -95 -100 -10 -19 -31 -50 -46 -68 -16 -18 -29 -39 -29 -46 0 -19
-27 -28 -37 -13 -5 8 -9 4 -13 -12 -5 -21 -7 -22 -18 -8 -11 13 -10 19 7 36
12 12 21 29 21 40 0 10 7 24 16 31 8 8 21 28 29 46 7 18 23 37 34 44 12 6 21
16 21 21 0 26 122 163 226 254 31 28 93 85 137 128 96 94 271 238 310 255 15
6 27 16 27 22 0 5 16 10 35 10 19 0 35 -4 35 -9z m-934 -35 c18 -14 18 -15 -8
-25 -16 -6 -28 -19 -30 -33 -4 -27 -31 -31 -36 -5 -4 22 16 49 31 40 6 -4 8 0
4 9 -11 29 9 36 39 14z m6430 -16 c8 0 14 -7 14 -15 0 -18 -2 -18 -35 -3 -27
12 -36 34 -9 24 9 -3 22 -6 30 -6z m207 -126 c3 -4 2 -15 -4 -26 -10 -19 -11
-19 -30 -2 -19 17 -19 19 -2 25 24 10 28 10 36 3z m48 -44 c5 0 14 -11 19 -24
5 -14 19 -26 32 -28 26 -4 38 -38 13 -38 -9 0 -27 11 -41 25 -14 14 -29 25
-34 25 -5 0 -16 7 -24 16 -19 18 -11 38 11 30 8 -3 19 -6 24 -6z m140 -106
c10 -13 10 -17 -1 -24 -18 -11 -50 6 -50 25 0 20 34 19 51 -1z m59 -55 c0 -15
-5 -20 -22 -17 -34 5 -37 38 -4 38 20 0 26 -5 26 -21z m67 -37 c10 -10 30 -26
46 -35 15 -10 27 -24 27 -32 0 -8 11 -22 25 -31 14 -9 25 -22 25 -29 0 -7 11
-24 25 -39 14 -15 25 -34 25 -42 0 -7 4 -14 10 -14 5 0 17 -15 26 -32 9 -18
25 -42 35 -53 50 -55 100 -122 105 -141 8 -32 1 -87 -12 -91 -7 -2 -30 29 -52
69 -44 80 -115 189 -157 241 -68 83 -104 124 -153 174 -29 29 -50 58 -47 63
10 16 53 11 72 -8z m383 -28 c0 -8 -5 -12 -10 -9 -6 4 -8 11 -5 16 9 14 15 11
15 -7z m-126 -127 c7 -29 3 -31 -24 -9 -13 10 -20 24 -16 30 10 16 33 4 40
-21z m70 -82 c14 -13 26 -30 26 -36 0 -7 12 -26 27 -41 23 -24 25 -30 13 -39
-12 -7 -28 5 -72 52 -32 34 -58 68 -58 75 0 22 35 16 64 -11z m142 -212 c15
-13 21 -28 18 -38 -9 -23 -26 -13 -37 21 -6 16 -16 33 -23 37 -8 4 -14 12 -14
18 0 10 14 1 56 -38z m-7401 -64 c0 -27 -5 -36 -28 -47 -32 -15 -46 -10 -29
11 7 8 9 17 6 20 -10 10 26 59 39 54 7 -2 12 -19 12 -38z m7483 -208 c20 -25
32 -51 32 -69 0 -21 6 -31 19 -35 13 -3 20 -18 25 -51 4 -26 14 -50 21 -52 27
-11 39 -94 14 -94 -14 0 -41 69 -35 86 3 8 1 14 -5 14 -5 0 -20 22 -33 50 -13
27 -28 55 -34 63 -7 8 -13 27 -14 43 -1 16 -10 35 -20 42 -18 13 -25 42 -10
42 5 0 23 -18 40 -39z m455 -691 c77 -61 160 -318 106 -328 -27 -5 -54 45 -89
163 -18 61 -38 122 -46 137 -26 51 -14 62 29 28z m-8135 -67 c-15 -34 -28 -51
-28 -35 0 18 22 62 31 62 5 0 3 -12 -3 -27z m-28 -56 c0 -1 -9 -27 -21 -57
-22 -58 -58 -165 -64 -190 -8 -35 -44 -169 -59 -220 -8 -30 -17 -67 -20 -81
-2 -14 -11 -53 -20 -85 -45 -174 -70 -298 -81 -394 -3 -30 -12 -109 -20 -175
-8 -66 -15 -186 -15 -268 0 -109 -3 -146 -11 -141 -15 9 -4 321 16 448 8 50
17 118 20 151 6 60 11 95 40 260 8 50 16 99 18 110 1 11 5 22 8 25 3 3 13 37
21 75 21 90 68 249 102 345 15 41 37 103 49 137 12 35 25 63 30 63 4 0 7 -1 7
-3z m8290 -881 c0 -8 -6 -21 -12 -28 -7 -7 -13 -19 -13 -27 0 -22 -32 -38 -46
-24 -9 9 -3 21 27 52 45 46 44 46 44 27z m-8543 -528 c-3 -7 -5 -2 -5 12 0 14
2 19 5 13 2 -7 2 -19 0 -25z m7 -34 c3 -8 2 -12 -4 -9 -6 3 -10 10 -10 16 0
14 7 11 14 -7z m3 -96 c-3 -8 -6 -5 -6 6 -1 11 2 17 5 13 3 -3 4 -12 1 -19z
m-50 -280 c4 -18 6 -36 5 -40 -3 -12 16 -9 24 3 12 21 23 -13 11 -38 -7 -17
-7 -27 0 -34 6 -6 9 -27 6 -47 -4 -33 3 -73 37 -230 5 -24 24 -92 41 -150 17
-59 44 -158 60 -220 38 -144 84 -285 143 -434 116 -295 135 -346 146 -388 7
-25 17 -56 23 -70 20 -45 19 -45 -16 -7 -38 42 -124 209 -180 352 -55 139
-109 286 -119 325 -5 19 -13 44 -17 55 -45 106 -132 498 -146 660 -13 141 -16
169 -29 231 -8 35 -9 64 -5 64 5 0 13 -15 16 -32z m7792 -2181 c-5 -31 -17
-74 -26 -94 -22 -52 -32 -95 -43 -186 -12 -100 -54 -182 -158 -306 -51 -60
-74 -72 -267 -137 -182 -62 -227 -75 -223 -64 2 5 66 74 143 152 159 162 308
333 399 457 33 46 76 102 93 125 18 23 45 57 60 77 16 20 29 36 30 35 2 -2 -2
-28 -8 -59z m-444 -27 c-3 -5 -11 -10 -16 -10 -6 0 -7 5 -4 10 3 6 11 10 16
10 6 0 7 -4 4 -10z m35 6 c0 -2 -8 -10 -17 -17 -16 -13 -17 -12 -4 4 13 16 21
21 21 13z"/>
<path d="M6269 9265 c-3 -2 -22 -7 -42 -9 -46 -6 -93 -28 -90 -41 2 -6 75 -12
175 -16 120 -4 188 -11 221 -22 45 -16 47 -15 47 3 0 11 5 20 11 20 5 0 8 -4
4 -9 -3 -5 -1 -12 5 -16 12 -7 13 24 2 43 -19 29 -119 52 -225 52 -57 0 -106
-2 -108 -5z"/>
<path d="M4704 6343 c-19 -4 -22 -15 -33 -119 -6 -63 -22 -165 -36 -227 -41
-187 -103 -445 -141 -585 -20 -73 -34 -135 -32 -136 1 -2 22 -6 46 -9 52 -6
52 -8 87 169 14 69 33 140 42 159 22 41 160 167 204 186 28 11 33 10 45 -6 25
-33 16 -69 -27 -119 -38 -43 -43 -46 -77 -40 -48 7 -92 -24 -92 -65 0 -42 14
-49 87 -43 l65 5 -21 -42 c-12 -23 -25 -71 -28 -106 -6 -61 -5 -65 25 -94 24
-24 39 -31 71 -31 22 0 51 5 64 11 25 11 64 74 59 95 -4 18 36 43 59 37 10 -3
19 -1 19 5 0 6 14 13 30 17 17 4 30 10 30 15 0 5 11 22 25 39 38 45 95 142 95
163 0 39 -32 13 -123 -101 -53 -65 -109 -128 -126 -140 -16 -12 -52 -24 -80
-27 -50 -5 -51 -5 -51 21 0 14 9 43 20 65 11 22 20 53 20 70 0 18 -8 37 -20
47 -11 10 -20 22 -20 28 0 6 22 33 49 59 56 55 95 133 85 170 -3 14 -17 37
-30 51 -57 62 -209 0 -296 -122 -18 -24 -34 -40 -36 -34 -2 5 31 111 72 235
74 224 112 367 102 393 -5 13 -80 16 -132 6z"/>
<path d="M6111 6331 c-17 -17 -25 -35 -69 -156 -14 -41 -23 -51 -47 -56 -51
-11 -173 -10 -177 2 -5 16 -52 1 -67 -22 -9 -15 -9 -24 -1 -34 16 -19 99 -35
185 -35 78 0 81 -2 65 -44 -13 -35 -76 -341 -94 -462 -14 -90 -14 -106 -1
-152 13 -41 24 -57 64 -86 55 -40 93 -46 144 -19 41 21 164 139 183 176 8 15
23 27 33 27 16 0 17 -5 11 -37 -4 -21 -15 -64 -25 -96 -17 -50 -17 -60 -5 -68
22 -13 57 -11 89 6 25 12 34 31 70 142 45 144 95 236 159 294 38 35 48 40 85
37 l42 -3 -4 -55 c-3 -52 -37 -198 -79 -342 -11 -36 -18 -69 -14 -72 11 -12
90 -6 101 8 6 7 23 54 37 102 48 166 116 283 199 342 26 19 40 22 64 17 37 -8
40 -28 15 -120 -49 -188 -62 -265 -51 -302 21 -66 110 -93 194 -58 56 23 140
96 160 137 10 21 21 38 25 38 3 0 6 -20 5 -44 -2 -51 19 -87 73 -123 75 -52
133 -40 217 45 30 31 53 48 53 39 0 -15 -38 -169 -105 -422 -64 -241 -65 -244
-48 -261 23 -22 73 -46 88 -41 16 7 43 111 100 387 53 259 113 504 156 639 56
175 51 211 -26 211 -71 0 -75 -4 -75 -75 0 -66 -20 -136 -65 -225 -35 -70
-109 -175 -137 -195 -30 -20 -71 -19 -99 4 l-24 19 19 93 c10 52 26 110 36
129 22 44 50 156 50 198 0 21 -7 35 -19 42 -24 12 -98 13 -105 1 -3 -5 -10
-41 -16 -81 -6 -40 -21 -100 -35 -134 -14 -35 -25 -66 -25 -71 0 -5 18 10 40
33 45 46 87 63 101 41 6 -10 3 -17 -10 -22 -10 -5 -33 -40 -51 -78 -30 -62
-78 -124 -81 -106 -1 4 -3 10 -4 15 -2 4 -6 17 -10 30 -7 22 -25 31 -25 12 0
-12 -94 -109 -130 -133 -29 -20 -89 -23 -96 -4 -2 7 12 87 32 177 43 198 43
254 -1 300 -35 37 -86 40 -146 9 -41 -20 -133 -106 -156 -144 -10 -17 -12 -12
-11 35 1 63 -27 133 -56 138 -41 8 -90 -12 -164 -68 -43 -32 -84 -70 -92 -84
-21 -40 -27 -31 -20 32 10 83 3 92 -67 84 -23 -3 -34 -11 -41 -31 -33 -92 -41
-138 -23 -126 15 9 33 -33 26 -58 -4 -12 -14 -32 -22 -45 -11 -19 -17 -21 -29
-11 -8 6 -14 21 -14 33 -1 21 -1 21 -15 1 -45 -63 -162 -185 -218 -227 -38
-30 -55 -37 -75 -32 -37 9 -50 21 -71 64 -15 32 -16 42 -5 91 8 30 38 115 68
189 30 74 72 188 93 252 l38 118 60 0 c33 0 95 -7 138 -15 43 -8 82 -15 87
-15 7 0 23 42 24 64 1 14 -120 44 -208 52 l-78 7 6 41 c21 138 21 135 -8 146
-41 15 -74 12 -95 -9z m265 -790 c-17 -60 -18 -63 -26 -51 -5 7 -5 23 -1 34 5
12 6 27 4 34 -3 8 1 10 11 6 9 -4 15 -14 12 -23z"/>
<path d="M3660 5955 c-7 -8 -18 -15 -25 -15 -6 0 -31 -21 -54 -46 -38 -42 -41
-49 -39 -97 1 -48 -3 -59 -60 -146 -34 -51 -62 -101 -62 -110 0 -13 2 -14 9
-2 7 11 13 12 23 3 11 -8 28 8 83 83 39 52 74 93 80 91 5 -1 15 -22 21 -47 7
-24 31 -92 53 -151 44 -118 44 -141 -3 -171 -47 -31 -77 -18 -104 46 -7 15
-12 37 -12 47 0 31 -50 26 -88 -8 -45 -40 -43 -79 5 -133 20 -22 49 -47 64
-55 93 -47 271 97 271 220 0 33 -13 71 -47 143 -26 54 -49 113 -52 133 -3 19
-10 41 -15 47 -7 9 1 29 26 67 20 30 36 59 36 65 0 14 -59 51 -81 51 -9 0 -22
-7 -29 -15z"/>
<path d="M4180 5941 c-50 -31 -68 -50 -95 -98 -18 -31 -18 -33 -1 -52 18 -20
17 -23 -48 -121 -57 -87 -80 -140 -60 -140 17 0 67 46 100 93 37 51 72 86 86
87 4 0 15 -26 23 -57 9 -32 20 -67 26 -78 5 -11 20 -56 34 -99 23 -73 23 -82
9 -103 -17 -28 -85 -63 -91 -48 -17 47 -71 131 -86 133 -19 4 -61 -29 -78 -59
-14 -27 8 -82 49 -122 33 -32 45 -38 85 -39 97 -2 236 127 239 222 1 15 -22
77 -50 136 -28 60 -57 132 -65 160 l-15 50 34 45 c18 24 33 49 33 54 0 18 -48
65 -66 65 -10 0 -38 -13 -63 -29z"/>
<path d="M8299 5950 c-42 -22 -119 -103 -119 -125 0 -8 5 -24 12 -34 10 -16 2
-33 -50 -115 -66 -102 -84 -146 -60 -146 17 0 60 45 118 123 23 31 46 57 50
57 8 0 84 -176 100 -235 19 -66 10 -106 -29 -132 -19 -13 -37 -23 -41 -23 -11
0 -66 93 -74 123 -7 31 -22 34 -56 10 -67 -46 -74 -81 -30 -141 40 -56 74 -76
122 -75 102 4 253 162 233 243 -4 14 -25 63 -47 110 -22 47 -51 117 -64 155
-24 68 -24 70 -6 85 46 38 56 99 20 124 -28 20 -35 20 -79 -4z"/>
<path d="M5313 5402 c-14 -2 -20 -8 -16 -18 4 -12 1 -12 -23 1 -16 8 -38 12
-49 8 -19 -6 -31 -7 -105 -11 -22 -2 -30 -7 -30 -20 0 -23 -19 -42 -42 -42
-12 0 -18 -8 -18 -24 l0 -24 118 5 c64 2 124 7 132 10 8 4 19 5 25 4 5 -2 112
-5 237 -7 l226 -4 7 40 c4 23 4 44 0 48 -3 4 -26 7 -51 7 -24 0 -44 3 -44 8 0
13 -98 8 -103 -5 -4 -9 -6 -7 -6 3 -1 9 -7 16 -13 17 -56 4 -227 7 -245 4z"/>
<path d="M4330 10320 c-8 -5 -10 -10 -5 -10 6 0 17 5 25 10 8 5 11 10 5 10 -5
0 -17 -5 -25 -10z"/>
<path d="M4273 10300 c-34 -14 -28 -21 7 -9 17 6 30 13 30 15 0 6 -12 4 -37
-6z"/>
<path d="M4170 10260 c-13 -8 -12 -10 3 -10 9 0 17 5 17 10 0 12 -1 12 -20 0z"/>
<path d="M3565 10010 c-3 -5 -1 -10 4 -10 6 0 11 5 11 10 0 6 -2 10 -4 10 -3
0 -8 -4 -11 -10z"/>
<path d="M3510 9970 c-12 -7 -12 -12 -2 -22 6 -6 12 -10 13 -7 0 2 2 12 4 22
4 20 4 19 -15 7z"/>
<path d="M3357 9879 c-9 -6 -17 -14 -17 -19 0 -10 38 -1 45 11 9 13 -9 18 -28
8z"/>
<path d="M2560 9230 c-20 -12 -5 -24 16 -12 9 5 12 12 7 15 -5 3 -15 2 -23 -3z"/>
<path d="M9790 9022 c0 -26 20 -51 139 -169 189 -189 349 -400 516 -683 38
-63 84 -134 103 -158 19 -24 41 -64 48 -90 14 -46 62 -128 70 -120 4 4 -6 42
-23 88 -9 24 -13 51 -16 105 -1 33 -11 65 -29 95 -28 48 -161 237 -276 391
-170 231 -412 499 -482 537 -50 27 -50 27 -50 4z"/>
<path d="M1692 8488 c-14 -14 -16 -28 -3 -28 9 0 24 30 18 36 -2 2 -9 -2 -15
-8z"/>
<path d="M1920 8070 c0 -5 4 -10 9 -10 6 0 13 5 16 10 3 6 -1 10 -9 10 -9 0
-16 -4 -16 -10z"/>
<path d="M10684 7696 c-7 -20 2 -46 16 -46 13 0 13 47 0 55 -6 3 -13 -1 -16
-9z"/>
<path d="M991 6224 c0 -11 3 -14 6 -6 3 7 2 16 -1 19 -3 4 -6 -2 -5 -13z"/>
<path d="M10505 6090 c-3 -6 1 -7 9 -4 18 7 21 14 7 14 -6 0 -13 -4 -16 -10z"/>
<path d="M952 5995 c0 -16 2 -22 5 -12 2 9 2 23 0 30 -3 6 -5 -1 -5 -18z"/>
<path d="M942 5895 c0 -16 2 -22 5 -12 2 9 2 23 0 30 -3 6 -5 -1 -5 -18z"/>
<path d="M943 5825 c0 -22 2 -30 4 -17 2 12 2 30 0 40 -3 9 -5 -1 -4 -23z"/>
<path d="M931 5760 c0 -15 -6 -31 -12 -37 -7 -7 -8 -13 0 -17 12 -8 25 34 18
61 -3 13 -5 11 -6 -7z"/>
<path d="M896 5558 c-4 -27 -4 -52 -1 -58 3 -5 2 -25 -4 -44 -5 -19 -6 -38 -3
-41 4 -4 8 -30 8 -58 l2 -52 -19 24 -19 23 0 -31 c0 -19 5 -30 13 -28 14 2 11
-96 -4 -101 -14 -5 -11 -29 5 -35 7 -3 16 -19 18 -36 3 -24 2 -28 -8 -20 -7 6
-15 20 -17 32 -2 12 -2 -32 0 -98 11 -348 58 -572 219 -1055 93 -279 165 -466
199 -517 12 -17 42 -76 65 -130 148 -339 274 -549 364 -608 28 -19 46 -14 28
7 -11 15 -26 41 -122 213 -258 464 -378 759 -541 1330 -155 540 -159 564 -165
980 -6 353 -7 372 -18 303z m155 -1285 c13 -16 12 -17 -3 -4 -10 7 -18 15 -18
17 0 8 8 3 21 -13z"/>
<path d="M856 5568 c-8 -30 -6 -97 4 -128 5 -17 8 2 11 63 4 84 -2 111 -15 65z"/>
<path d="M10646 5454 c-8 -21 -8 -24 3 -24 12 0 22 28 12 35 -5 3 -12 -2 -15
-11z"/>
<path d="M1552 3253 c2 -5 42 -84 89 -178 48 -93 110 -222 139 -285 92 -197
241 -447 352 -587 93 -118 387 -407 532 -524 206 -166 224 -179 245 -179 32 0
25 25 -16 56 -47 35 -239 213 -355 328 -188 186 -411 450 -525 621 -126 188
-365 646 -380 728 -5 24 -10 27 -45 27 -22 0 -38 -3 -36 -7z"/>
<path d="M10007 2313 c-10 -9 -9 -23 1 -23 5 0 9 7 9 15 0 17 -1 18 -10 8z"/>
<path d="M2660 1905 c0 -11 176 -187 206 -206 32 -19 79 -19 72 1 -3 9 -187
165 -228 193 -23 16 -50 23 -50 12z"/>
<path d="M2968 1653 c6 -2 18 -2 25 0 6 3 1 5 -13 5 -14 0 -19 -2 -12 -5z"/>
<path d="M3010 1447 c0 -3 21 -22 48 -43 45 -36 46 -36 17 -5 -28 30 -65 57
-65 48z"/>
<path d="M8366 1241 c-4 -7 -5 -15 -2 -18 9 -9 19 4 14 18 -4 11 -6 11 -12 0z"/>
<path d="M7752 917 c-9 -11 -10 -17 -2 -22 15 -9 23 -1 18 21 -3 15 -4 16 -16
1z"/>
<path d="M7607 861 c-20 -10 -34 -21 -30 -26 5 -4 1 -6 -8 -2 -9 3 -34 -3 -55
-13 -40 -18 -144 -57 -224 -83 -33 -11 -39 -16 -25 -20 11 -2 2 -5 -20 -6 -22
-1 -75 -12 -118 -26 -43 -14 -84 -25 -92 -25 -7 0 -26 -5 -42 -12 -15 -6 -53
-17 -83 -25 -30 -7 -62 -15 -70 -18 -8 -2 -49 -12 -90 -20 -41 -9 -84 -20 -95
-25 -11 -5 -42 -11 -70 -14 -59 -5 -87 -15 -79 -27 3 -5 -1 -6 -8 -4 -8 3 -22
-1 -33 -9 -39 -30 8 -21 375 74 420 109 407 105 610 180 169 61 166 60 151 70
-10 6 -1 14 30 28 24 11 37 20 29 20 -8 0 -32 -8 -53 -17z"/>
</g>
</svg>
